<?xml version="1.0" encoding="UTF-8"?>
<svg id="Layer_1" data-name="Layer 1" xmlns="http://www.w3.org/2000/svg" viewBox="0 0 8474.37 1568.85">
  <g>
    <path d="M3475.4,2.44h-260.31l-226.73,619.53h172.6l42.47-125.04h240.05l44.97,125.04h205.26L3475.4,2.44ZM3372.74,371.93h-103.53l-58.8,24.24,37.33-46.63,62.5-245.42,10.27-65.27h13.05l11.2,64.35,54.13,245.37,37.33,46.68-63.47-23.32Z"/>
    <path d="M4296.9,655.56c-17.12-20.54-43.07-37.01-77.9-49.45-34.83-12.44-81.19-22.71-139.01-30.81-40.43-6.85-70.59-13.37-90.49-19.57-19.94-6.2-33.31-13.23-40.15-21-6.85-7.77-10.22-18.5-10.22-32.2,0-2.45.14-4.81.46-6.99,0-.14.05-.32.09-.46.23-1.94.69-3.52,1.3-4.67-.37.09-.74.19-1.11.32-36.18,9.9-64.07,22.67-83.78,38.4-19.94,15.87-29.88,34.05-29.88,54.59,0,16.19,4.67,29.38,14.02,39.64,9.3,10.27,25.17,19.43,47.56,27.53,22.39,8.05,54.45,15.22,96.13,21.47,46.63,7.45,81.93,14.3,105.89,20.49,23.92,6.25,41.17,13.23,51.77,21,10.59,7.77,15.87,17.58,15.87,29.38,0,14.94-5,27.39-14.94,37.33-19.89,16.19-56.9,24.29-111.03,24.29-42.88,0-75.87-7.82-98.91-23.36-22.99-15.54-34.51-37.01-34.51-64.35,0-6.85.14-13.09.46-18.69.32-5.6.79-10.87,1.43-15.82,0-9.34.93-15.87,2.78-19.61-51.63,10.59-89.89,26.14-114.77,46.63-24.89,20.54-37.29,47.6-37.29,81.19,0,39.18,21.93,70.13,65.78,92.85,43.81,22.67,106.17,34.05,187.03,34.05,54.13,0,104.18-5.27,150.21-15.87,46.03-10.59,81.19-25.17,105.43-43.86,21.14-17.39,37.01-36.08,47.6-55.98,10.55-19.89,15.87-42.61,15.87-68.1,0-31.73-8.56-57.87-25.67-78.37ZM4271.23,202.11c-18.04-26.74-43.21-47.6-75.54-62.5-22.39-10.59-46.82-18.18-73.23-22.85-26.46-4.67-55.24-7.03-86.32-7.03-63.42,0-116.16,9.02-158.12,27.06-42.01,18.04-72.63,42.33-91.92,72.77-19.29,30.49-28.91,64.72-28.91,102.65,0,52.23,14.43,93.31,43.39,123.15,28.91,29.84,75.41,47.93,139.48,54.13l-.18,1.25-.74,4.35h82.07c44.18,0,83.83-3.75,118.98-11.19,35.11-7.49,63.56-18.97,85.35-34.51,22.39-15.54,40.11-37.01,53.2-64.4,13.05-27.34,19.57-55.65,19.57-84.89,0-38.58-9.02-71.24-27.06-97.98ZM4118.24,310.36c0,17.39-1.39,32.34-4.21,44.78-2.78,12.44-7.31,22.07-13.51,28.91-6.25,6.2-15.27,10.73-27.06,13.51-11.84,2.82-24.56,4.21-38.26,4.21-19.94,0-35.94-1.71-48.07-5.14-12.12-3.42-21.6-8.23-28.45-14.48-7.45-6.8-12.77-16.79-15.87-29.84-3.1-13.05-4.67-27.66-4.67-43.86v-14.9c0-16.19,1.57-30.95,4.67-44.32,3.1-13.37,7.49-24.75,13.09-34.09,8.05-3.7,17.53-6.66,28.45-8.84,10.87-2.17,21.93-3.28,33.12-3.28h8.37c16.19,0,30.16,1.9,42.01,5.6,11.8,3.75,21.14,9.02,27.99,15.87,7.45,6.85,13.05,15.73,16.79,26.6,3.75,10.87,5.6,25.35,5.6,43.39v15.87ZM4162.14,2.68l13.92,110.8h22.39c39.18,0,68.61-4.67,88.17-13.97,19.61-9.34,33.45-24.56,41.54-45.75,5.18-13.56,8.93-30.58,11.29-51.07h-177.32Z"/>
    <path d="M4803.97,109.72c-39.18,0-70.92,10.73-95.16,32.2-24.24,21.46-42.61,52.09-55.05,91.92-8.1,24.24-14.62,53.48-19.57,87.71h-14.94l-23.32-197.81h-148.36v498.23h186.62v-284.6c14.9-14.9,36.04-25.17,63.42-30.76,27.39-5.6,60.32-8.42,98.91-8.42h34.51V109.72h-27.06Z"/>
    <path d="M4957.65,4.53c.09.51.19,1.06.28,1.57.23,1.02.46,2.08.65,3.05,3.47,15.91,6.34,27.57,8.7,39.83h160.43c2.73-11.7,5.83-23.45,9.16-39.83.32-1.48.65-3.05.97-4.63h-180.19ZM4954.18,123.74v498.23h186.62V123.74h-186.62Z"/>
    <path d="M5753.9,298.34c-30.54-15.25-67.74-29.86-111.67-43.92l-20.1-6.4c-42.74-13.43-73.69-25.45-92.88-36.16-19.24-10.66-28.86-23.91-28.86-39.79,0-17.06,6.4-30.49,19.24-40.25,12.8-9.76,33.85-14.66,63.12-14.66,35.39,0,63.48,7.62,84.22,22.87,20.74,15.25,34.76,35.71,42.11,61.3h160.13c-6.72-39.02-21.83-73.64-45.28-103.86-23.5-30.17-56.17-54-97.92-71.37-41.79-17.38-92.29-26.09-151.46-26.09s-106.49,7.94-147.33,23.82c-40.88,15.88-72.01,37.66-93.34,65.43-21.37,27.77-32.03,58.72-32.03,92.88,0,36.62,10.66,67.88,32.03,93.79,21.33,25.95,47.42,46.51,78.23,61.75,30.81,15.29,68.47,30.54,113.03,45.78,6.08,1.81,12.21,3.95,18.29,6.4,28.68,9.17,50.96,16.79,66.79,22.87,15.88,6.13,28.86,13.29,38.93,21.51,10.03,8.26,15.06,17.83,15.06,28.81,0,18.33-6.26,32.22-18.74,41.65-12.52,9.48-33.12,14.2-61.76,14.2-39.7,0-72.33-7.94-97.92-23.82-25.64-15.84-42.43-37.21-50.37-64.02h-165.62c14.66,67.7,49.41,119.38,104.32,155.09,54.9,35.71,126.6,53.54,215.08,53.54,60.98,0,112.08-7.94,153.28-23.78,41.15-15.88,71.65-37.71,91.48-65.48,19.83-27.72,29.77-60.21,29.77-97.42s-10.66-67.75-32.03-93.38c-21.37-25.59-47.28-46.05-77.77-61.3Z"/>
    <path d="M6219.33,400.84h307.87v-40.11c0-85.21-22.99-148.36-69.02-189.39-23.04-20.54-51.49-36.08-85.4-46.68-33.91-10.55-73.23-15.87-118.01-15.87-39.18,0-75.73,6.25-109.64,18.69-33.91,12.44-63.61,30.44-89.1,54.08-25.49,23.04-45.1,51.35-58.75,84.94-13.69,33.59-20.54,70.27-20.54,110.05,0,87.71,25.21,153.22,75.59,196.43,50.38,43.25,120.32,64.86,209.89,64.86,52.88,0,99.83-7.49,140.91-22.39,41.03-14.94,72.45-36.73,94.23-65.32l-112.92-79.34c-9.3,13.69-24.56,24.89-45.71,33.63-21.14,8.7-44.46,13.05-69.95,13.05-32.98,0-61.11-11.06-84.47-33.12-23.32-22.07-35.3-54.91-35.9-98.44v-21.23l70.92,36.18ZM6172.65,256.23c9.34-11.2,21-19.43,35.02-24.75,13.97-5.27,30.3-7.91,48.94-7.91,19.94,0,35.94,2.5,48.06,7.45,12.12,5,22.25,12.12,30.35,21.47,14.29,16.79,21.42,42.33,21.42,76.52v3.75h-207.85c1.16-32.15,9.21-57.64,24.06-76.52Z"/>
    <path d="M7171.43,210.99c-5.27-27.06-14.48-48.07-27.53-63.01-12.44-13.65-27.99-24.1-46.63-31.23-18.69-7.17-42.01-10.73-69.99-10.73-26.14,0-51.3,5.74-75.59,17.26-24.24,11.52-45.71,27.2-64.35,47.09-18.64,19.94-33.31,42.93-43.86,69.07l-14.94-115.7h-168.85v498.23h186.57V240.37c3.75-1.25,7.77-2.82,12.17-4.67,11.8-3.1,23.92-6.06,36.36-8.84,12.44-2.82,24.89-4.21,37.33-4.21,25.49,0,42.61,8.1,51.3,24.24,4.35,6.85,7.17,17.9,8.42,33.12,1.25,15.27,1.85,41.82,1.85,79.75v262.21h185.65v-299.49c0-47.28-2.64-84.43-7.91-111.49Z"/>
    <path d="M7718.19,341.59c-32.66-15.22-72.63-27.53-119.91-36.82l-7.45-1.9c-24.29-4.95-43.72-10.08-58.34-15.4-14.62-5.27-25.81-11.33-33.59-18.18-7.77-6.85-11.66-14.94-11.66-24.24,0-13.69,6.2-24.29,18.64-31.73,12.44-7.45,31.74-11.2,57.87-11.2,30.44,0,60.19,5.78,89.1,17.26,28.91,11.52,56.44,29.38,82.58,53.66l95.16-78.37c-31.13-27.99-68.74-49.45-112.88-64.4-44.18-14.94-95.53-22.39-153.96-22.39-47.93,0-90.21,6.24-126.89,18.64-36.73,12.49-65.32,30.67-85.86,54.59-20.49,23.96-30.76,52.41-30.76,85.4,0,27.34,7.77,51.16,23.32,71.38,15.54,20.22,38.26,37.47,68.1,51.77,29.88,14.3,67.82,26.41,113.85,36.36,4.35.65,8.37,1.57,12.12,2.82,27.39,6.2,49.13,12.58,65.32,19.11,16.15,6.57,28.26,13.88,36.36,21.93,8.1,8.1,12.17,16.79,12.17,26.14,0,13.05-6.38,23.32-19.15,30.81-12.77,7.45-33.72,11.19-62.96,11.19s-62.22-7.31-95.16-21.93c-32.98-14.62-63.15-34.37-90.53-59.26l-86.74,93.31c32.94,28.59,73.69,50.24,122.22,64.81,48.48,14.62,102.01,21.93,160.48,21.93,50.98,0,94.51-7.12,130.6-21.42,36.08-14.34,63.75-33.91,83.04-58.8,19.29-24.89,28.91-53.48,28.91-85.86,0-27.34-9.16-51.9-27.53-73.69-18.32-21.74-43.86-40.25-76.47-55.51Z"/>
    <path d="M8166.46,400.84h307.91v-40.11c0-85.21-23.04-148.36-69.07-189.39-22.99-20.54-51.44-36.08-85.35-46.68-33.91-10.55-73.23-15.87-118.01-15.87-39.18,0-75.73,6.25-109.64,18.69-33.91,12.44-63.61,30.44-89.1,54.08-25.54,23.04-45.1,51.35-58.8,84.94-13.69,33.59-20.49,70.27-20.49,110.05,0,87.71,25.17,153.22,75.54,196.43,50.38,43.25,120.37,64.86,209.93,64.86,52.88,0,99.83-7.49,140.87-22.39,41.08-14.94,72.49-36.73,94.23-65.32l-112.88-79.34c-9.34,13.69-24.56,24.89-45.71,33.63-21.14,8.7-44.5,13.05-69.99,13.05-32.98,0-61.11-11.06-84.43-33.12-23.32-22.07-35.3-54.91-35.9-98.44v-21.23l70.87,36.18ZM8119.83,256.23c9.34-11.2,21-19.43,34.97-24.75,14.02-5.27,30.35-7.91,48.99-7.91,19.89,0,35.9,2.5,48.07,7.45,12.12,5,22.2,12.12,30.3,21.47,14.3,16.79,21.47,42.33,21.47,76.52v3.75h-207.85c1.16-32.15,9.16-57.64,24.06-76.52Z"/>
  </g>
  <g>
    <path d="M3414.05,1334.16c-16.51-19.89-37.05-35.2-61.62-45.94-24.61-10.69-54.96-20.77-91.09-30.21l-19.61-4.72c-39.23-10.45-68.79-21.7-88.68-33.72-19.89-12.03-29.84-28.77-29.84-50.24,0-24.61,8.65-44.23,25.91-58.89,17.26-14.66,43.16-21.97,77.72-21.97,36.59,0,65.14,7.08,85.54,21.19,20.45,14.11,34.05,37.42,40.85,69.85h80.82c-6.25-34.51-18.18-63.28-35.71-86.32-17.53-23.04-40.29-40.29-68.28-51.81-27.99-11.52-61.62-17.26-100.85-17.26-37.19,0-69.35,6.66-96.55,19.98-27.25,13.37-47.88,31.55-62.04,54.59-14.11,22.99-21.19,48.67-21.19,76.89,0,30.39,8.1,55.37,24.33,74.99,16.24,19.61,36.36,34.65,60.46,45.1,24.06,10.5,53.62,20.17,88.68,29.05,1.06,0,1.85.28,2.36.79,30.86,7.86,55.33,15.08,73.37,21.6,18.09,6.52,33.12,15.31,45.15,26.28,12.03,11.01,18.04,24.89,18.04,41.63,0,26.69-8.6,47.88-25.91,63.56-17.26,15.68-43.67,23.55-79.25,23.55-40.85,0-74.2-9.02-100.11-27.06-25.91-18.09-42.01-44.64-48.25-79.71h-85.58c10.46,57.04,35.34,100.25,74.57,129.53,39.28,29.33,91.32,43.95,156.22,43.95,39.23,0,72.72-6.8,100.48-20.4,27.71-13.6,48.76-32.29,63.19-56.11,14.39-23.83,21.56-50.89,21.56-81.23s-8.23-57.04-24.7-76.93Z"/>
    <path d="M3823.37,1035.08h-98.12l-197.03,522.01h80.08l50.61-139.75h225.29l49.08,139.75h81.6l-191.52-522.01ZM3842.2,1349.06h-140.49l-31.37,12.58,17.26-22.76,69.07-197.81,16.05-81.19-1.16-5.97h2.36l-1.2,5.97,16.15,81.97,67.5,195.45,20.4,26.69-34.56-14.94Z"/>
    <path d="M4602.04,1035.87l-149.93,381.47-11.75,99.69h-1.57l-15.68-98.91-150.72-382.26h-118.52v521.22h71.43v-362.64l-8.65-142.11h1.57l28.27,95.76,164.04,408.99h53.39l162.47-408.99,27.48-94.98h1.57l-7.08,143.69v360.28h71.43v-521.22h-117.73Z"/>
    <path d="M5317.14,1456.62c-6.8-24.61-16.61-45.24-29.42-62.04-12.86-16.7-29.19-29.51-49.08-38.44-19.38-8.88-43.16-13.88-71.43-14.89v-7.87c38.72-1.57,69.58-10.32,92.61-26.32,23.04-15.91,39.14-35.02,48.3-57.27,9.11-22.25,13.74-45.15,13.74-68.7,0-47.6-16.65-83.73-49.87-108.3-33.22-24.61-82.53-36.92-147.94-36.92h-208.82v521.22h75.36v-219l38.49,7.82h59.63c24.61,0,46.58-1.29,65.92-3.89,14.16,7.31,27.34,18.32,39.65,32.94,12.31,14.67,22.76,33.49,31.41,56.53,8.65,23.04,14.25,49.45,16.89,79.29,1.02,9.39,1.57,16.98,1.57,22.76v23.55h84.75v-14.16c-1.02-32.94-4.95-61.71-11.75-86.32ZM5096.57,1288.64h-81.65l-24.33.79v-164.09l-8.6-30.58,33.72,7.82h103.62c41.87,0,72.35,7.49,91.46,22.39,19.06,14.89,28.64,36.78,28.64,65.55,0,24.61-4.21,43.81-12.54,57.69-8.42,13.88-22.9,24.06-43.58,30.62-20.68,6.52-49.59,9.81-86.74,9.81Z"/>
    <path d="M5436.45,1035.87v70.64h134.99l36.13-16.47h1.57l-5.51,36.87v430.18h77.72v-431.76l-6.29-36.08h1.57l35.34,17.26h135.78v-70.64h-411.31Z"/>
    <path d="M6542.46,1105.73v-69.85h-349.32v521.22h76.15v-211.18l-6.29-25.12,36.92,11.8h177.37v-70.64h-195.45l-18.04,4.72,5.51-17.3v-116.16l-10.22-35.3,38.49,7.82h244.91Z"/>
    <path d="M6884.7,1035.08h-98.12l-197.03,522.01h80.03l50.61-139.75h225.34l49.04,139.75h81.65l-191.52-522.01ZM6903.53,1349.06h-140.49l-31.41,12.58,17.26-22.76,69.07-197.81,16.1-81.19-1.16-5.97h2.36l-1.2,5.97,16.1,81.97,67.49,195.45,20.4,26.69-34.51-14.94Z"/>
    <path d="M7617.06,1456.62c-6.85-24.61-16.65-45.24-29.47-62.04-12.81-16.7-29.19-29.51-49.04-38.44-19.38-8.88-43.21-13.88-71.43-14.89v-7.87c38.72-1.57,69.58-10.32,92.61-26.32,23.04-15.91,39.09-35.02,48.25-57.27,9.16-22.25,13.74-45.15,13.74-68.7,0-47.6-16.61-83.73-49.82-108.3-33.26-24.61-82.58-36.92-147.99-36.92h-208.78v521.22h75.36v-219l38.44,7.82h59.68c24.56,0,46.59-1.29,65.92-3.89,14.16,7.31,27.34,18.32,39.65,32.94,12.31,14.67,22.76,33.49,31.41,56.53,8.6,23.04,14.25,49.45,16.89,79.29,1.02,9.39,1.53,16.98,1.53,22.76v23.55h84.8v-14.16c-1.06-32.94-5-61.71-11.75-86.32ZM7396.49,1288.64h-81.65l-24.33.79v-164.09l-8.65-30.58,33.77,7.82h103.62c41.82,0,72.31,7.49,91.41,22.39,19.11,14.89,28.68,36.78,28.68,65.55,0,24.61-4.21,43.81-12.58,57.69-8.37,13.88-22.9,24.06-43.53,30.62-20.72,6.52-49.59,9.81-86.74,9.81Z"/>
    <path d="M8242.65,1035.87l-149.93,381.47-11.8,99.69h-1.57l-15.68-98.91-150.72-382.26h-118.52v521.22h71.43v-362.64l-8.6-142.11h1.57l28.22,95.76,164.09,408.99h53.34l162.52-408.99,27.48-94.98h1.57l-7.08,143.69v360.28h71.43v-521.22h-117.73Z"/>
  </g>
  <g>
    <path d="M2356.15,735.59c-73.42-36.68-162.98-71.89-268.68-105.71l-48.48-15.41c-102.75-32.29-177.27-61.3-223.53-87.02-46.21-25.68-69.39-57.59-69.39-95.76,0-41.13,15.41-73.46,46.31-96.96,30.81-23.45,81.47-35.21,151.97-35.21,85.07,0,152.66,18.37,202.58,55.05,49.87,36.69,83.69,85.91,101.31,147.57h385.4c-16.19-93.96-52.51-177.27-109.04-249.95-56.53-72.68-135.08-129.99-235.61-171.81-100.57-41.87-222.1-62.78-364.49-62.78s-256.19,19.11-354.59,57.27c-82.85,32.15-149.05,74.48-198.55,126.94l233.02,661.35c58.89,25.72,125.97,51.49,201.24,77.21,14.62,4.39,29.33,9.58,44.04,15.45,68.98,22.02,122.55,40.39,160.76,55.05,38.12,14.71,69.39,31.92,93.59,51.72,24.24,19.85,36.32,42.98,36.32,69.39,0,44.04-15.03,77.44-45.1,100.25-30.12,22.71-79.71,34.09-148.68,34.09-85.72,0-157.84-15.36-216.32-46.17l113.34,321.61,3.89,11.01c36.13,2.87,73.55,4.3,112.32,4.3,146.79,0,269.79-19.11,368.89-57.27,99.09-38.21,172.46-90.62,220.2-157.47,47.74-66.85,71.61-144.98,71.61-234.54s-25.72-163.02-77.12-224.69c-51.4-61.67-113.76-110.8-187.17-147.53Z"/>
    <path d="M1749.27,1547.29l-138.23-392.2-125.69-356.63-220.02-624.29-55.14-156.55h-646.82L0,1557.1h428.93l105.48-310.69h596.49l111.77,310.69h510.03l-3.42-9.81ZM955.15,995.07h-257.3l-146.05.97,92.71-115.98,155.3-609.72,25.54-162.28h32.43l27.85,159.97,134.48,609.72,92.75,115.98-157.7,1.34Z"/>
  </g>
</svg>